G04 EAGLE Gerber RS-274X export*
G75*
%MOMM*%
%FSLAX34Y34*%
%LPD*%
%INBottom Copper*%
%IPPOS*%
%AMOC8*
5,1,8,0,0,1.08239X$1,22.5*%
G01*
%ADD10C,1.924000*%
%ADD11C,1.000000*%
%ADD12C,1.924000*%
%ADD13C,0.254000*%


D10*
X78800Y789900D03*
X78800Y764500D03*
X78800Y739100D03*
X78800Y713700D03*
X78800Y688300D03*
X78800Y662900D03*
X78800Y637500D03*
X78800Y612100D03*
X78800Y586700D03*
X78800Y561300D03*
X78800Y535900D03*
X78800Y510500D03*
X78800Y485100D03*
X78800Y459700D03*
X78800Y434300D03*
X78800Y408900D03*
X190500Y434340D03*
X114300Y434340D03*
X520700Y800100D03*
X495300Y800100D03*
X469900Y800100D03*
X444500Y800100D03*
X419100Y800100D03*
X393700Y800100D03*
X858012Y586994D03*
X858012Y632206D03*
X792988Y586994D03*
X792988Y632206D03*
X858012Y447294D03*
X858012Y492506D03*
X792988Y447294D03*
X792988Y492506D03*
X858012Y307594D03*
X858012Y352806D03*
X792988Y307594D03*
X792988Y352806D03*
X990600Y469900D03*
X990600Y444500D03*
X990600Y495300D03*
X965200Y495300D03*
X965200Y469900D03*
X965200Y444500D03*
X158750Y635000D03*
X158750Y685800D03*
X158750Y660400D03*
X971550Y584200D03*
X971550Y635000D03*
X971550Y609600D03*
X971550Y304800D03*
X971550Y355600D03*
X971550Y330200D03*
D11*
X60400Y174700D03*
X1006400Y866700D03*
D12*
X631920Y673100D02*
X612680Y673100D01*
X612680Y647700D02*
X631920Y647700D01*
D10*
X241300Y698500D03*
X241300Y673100D03*
X241300Y647700D03*
X241300Y622300D03*
X241300Y596900D03*
X241300Y571500D03*
X266700Y698500D03*
X266700Y673100D03*
X266700Y647700D03*
X266700Y622300D03*
X266700Y596900D03*
X266700Y571500D03*
X241300Y546100D03*
X241300Y520700D03*
X266700Y546100D03*
X266700Y520700D03*
X241300Y495300D03*
X266700Y495300D03*
X241300Y469900D03*
X266700Y469900D03*
X673100Y698500D03*
X673100Y673100D03*
X673100Y647700D03*
X673100Y622300D03*
X673100Y596900D03*
X673100Y571500D03*
X698500Y698500D03*
X698500Y673100D03*
X698500Y647700D03*
X698500Y622300D03*
X698500Y596900D03*
X698500Y571500D03*
X673100Y546100D03*
X673100Y520700D03*
X698500Y546100D03*
X698500Y520700D03*
X673100Y495300D03*
X698500Y495300D03*
X673100Y469900D03*
X698500Y469900D03*
D13*
X673100Y596900D02*
X445770Y596900D01*
X260350Y411480D01*
X181610Y411480D01*
X116840Y476250D01*
X116840Y688360D01*
X91500Y713700D01*
X78800Y713700D01*
X430530Y571500D02*
X673100Y571500D01*
X430530Y571500D02*
X264160Y405130D01*
X177800Y405130D01*
X111760Y471170D01*
X111760Y642640D01*
X91500Y662900D01*
X78800Y662900D01*
X266700Y622300D02*
X279400Y622300D01*
X295910Y638810D01*
X295910Y713740D01*
X194310Y815340D01*
X64770Y815340D01*
X54610Y805180D01*
X54610Y648990D01*
X66398Y637202D01*
X66695Y637500D01*
X78800Y637500D01*
X698500Y647700D02*
X707390Y647700D01*
X759460Y595630D01*
X759460Y579120D01*
X822960Y515620D01*
X911860Y515620D01*
X957580Y469900D01*
X965200Y469900D01*
X721360Y520700D02*
X698500Y520700D01*
X721360Y520700D02*
X759460Y482600D01*
X759460Y439420D01*
X822960Y375920D01*
X909320Y375920D01*
X955040Y330200D01*
X971550Y330200D01*
X673100Y495300D02*
X652780Y495300D01*
X641350Y483870D01*
X641350Y462280D01*
X789178Y314452D01*
X789178Y311404D02*
X792988Y307594D01*
X789178Y311404D02*
X789178Y314452D01*
X190500Y434340D02*
X190500Y670560D01*
X180340Y680720D02*
X175260Y685800D01*
X180340Y680720D02*
X190500Y670560D01*
X175260Y685800D02*
X158750Y685800D01*
X266700Y698500D02*
X266700Y722630D01*
X222250Y722630D01*
X180340Y680720D01*
X217170Y698500D02*
X241300Y698500D01*
X217170Y698500D02*
X217170Y458470D01*
X229870Y445770D01*
X278130Y445770D01*
X495300Y662940D01*
X495300Y725170D02*
X495300Y800100D01*
X495300Y725170D02*
X495300Y662940D01*
X896620Y635000D02*
X971550Y635000D01*
X896620Y635000D02*
X806450Y725170D01*
X495300Y725170D01*
X162560Y632460D02*
X162560Y454660D01*
X162560Y632460D02*
X160020Y635000D01*
X158750Y635000D01*
X779780Y632460D02*
X793242Y632460D01*
X779780Y632460D02*
X713740Y698500D01*
X698500Y698500D01*
X792988Y632206D02*
X793242Y632460D01*
X901700Y444500D02*
X965200Y444500D01*
X901700Y444500D02*
X876300Y469900D01*
X825500Y469900D01*
X802894Y492506D01*
X792988Y492506D01*
X314960Y762000D02*
X276860Y762000D01*
X314960Y762000D02*
X386080Y833120D01*
X502920Y833120D01*
X520700Y815340D01*
X520700Y800100D01*
D10*
X162560Y454660D03*
X276860Y762000D03*
M02*
