M48
;GenerationSoftware,Autodesk,EAGLE,9.6.2*%
;CreationDate,2021-05-23T23:07:01Z*%
FMAT,2
ICI,OFF
METRIC,TZ,000.0000
T1C1.5240
%
G90
M71
T1
X162560Y454660
X276860Y762000
X78800Y789900
X78800Y764500
X78800Y739100
X78800Y713700
X78800Y688300
X78800Y662900
X78800Y637500
X78800Y612100
X78800Y586700
X78800Y561300
X78800Y535900
X78800Y510500
X78800Y485100
X78800Y459700
X78800Y434300
X78800Y408900
X190500Y434340
X114300Y434340
X520700Y800100
X495300Y800100
X469900Y800100
X444500Y800100
X419100Y800100
X393700Y800100
X858012Y586994
X858012Y632206
X792988Y586994
X792988Y632206
X858012Y447294
X858012Y492506
X792988Y447294
X792988Y492506
X858012Y307594
X858012Y352806
X792988Y307594
X792988Y352806
X990600Y469900
X990600Y444500
X990600Y495300
X965200Y495300
X965200Y469900
X965200Y444500
X158750Y635000
X158750Y685800
X158750Y660400
X971550Y584200
X971550Y635000
X971550Y609600
X971550Y304800
X971550Y355600
X971550Y330200
X622300Y673100
X622300Y647700
X241300Y698500
X241300Y673100
X241300Y647700
X241300Y622300
X241300Y596900
X241300Y571500
X266700Y698500
X266700Y673100
X266700Y647700
X266700Y622300
X266700Y596900
X266700Y571500
X241300Y546100
X241300Y520700
X266700Y546100
X266700Y520700
X241300Y495300
X266700Y495300
X241300Y469900
X266700Y469900
X673100Y698500
X673100Y673100
X673100Y647700
X673100Y622300
X673100Y596900
X673100Y571500
X698500Y698500
X698500Y673100
X698500Y647700
X698500Y622300
X698500Y596900
X698500Y571500
X673100Y546100
X673100Y520700
X698500Y546100
X698500Y520700
X673100Y495300
X698500Y495300
X673100Y469900
X698500Y469900
M30