G04 EAGLE Gerber RS-274X export*
G75*
%MOMM*%
%FSLAX34Y34*%
%LPD*%
%IN*%
%IPPOS*%
%AMOC8*
5,1,8,0,0,1.08239X$1,22.5*%
G01*
%ADD10C,0.254000*%


D10*
X25400Y165100D02*
X25497Y162886D01*
X25786Y160689D01*
X26265Y158526D01*
X26932Y156413D01*
X27780Y154366D01*
X28803Y152400D01*
X29994Y150531D01*
X31342Y148773D01*
X32840Y147140D01*
X34473Y145642D01*
X36231Y144294D01*
X38100Y143103D01*
X40066Y142080D01*
X42113Y141232D01*
X44226Y140565D01*
X46389Y140086D01*
X48586Y139797D01*
X50800Y139700D01*
X1016000Y139700D01*
X1018214Y139797D01*
X1020411Y140086D01*
X1022574Y140565D01*
X1024687Y141232D01*
X1026735Y142080D01*
X1028700Y143103D01*
X1030569Y144294D01*
X1032327Y145642D01*
X1033961Y147140D01*
X1035458Y148773D01*
X1036806Y150531D01*
X1037997Y152400D01*
X1039020Y154366D01*
X1039868Y156413D01*
X1040535Y158526D01*
X1041014Y160689D01*
X1041303Y162886D01*
X1041400Y165100D01*
X1041400Y876300D01*
X1041303Y878514D01*
X1041014Y880711D01*
X1040535Y882874D01*
X1039868Y884987D01*
X1039020Y887035D01*
X1037997Y889000D01*
X1036806Y890869D01*
X1035458Y892627D01*
X1033961Y894261D01*
X1032327Y895758D01*
X1030569Y897106D01*
X1028700Y898297D01*
X1026735Y899320D01*
X1024687Y900168D01*
X1022574Y900835D01*
X1020411Y901314D01*
X1018214Y901603D01*
X1016000Y901700D01*
X50800Y901700D01*
X48586Y901603D01*
X46389Y901314D01*
X44226Y900835D01*
X42113Y900168D01*
X40066Y899320D01*
X38100Y898297D01*
X36231Y897106D01*
X34473Y895758D01*
X32840Y894261D01*
X31342Y892627D01*
X29994Y890869D01*
X28803Y889000D01*
X27780Y887035D01*
X26932Y884987D01*
X26265Y882874D01*
X25786Y880711D01*
X25497Y878514D01*
X25400Y876300D01*
X25400Y165100D01*
M02*
