G04 EAGLE Gerber RS-274X export*
G75*
%MOMM*%
%FSLAX34Y34*%
%LPD*%
%INSilkscreen Bottom*%
%IPPOS*%
%AMOC8*
5,1,8,0,0,1.08239X$1,22.5*%
G01*
%ADD10C,0.152400*%
%ADD11C,0.127000*%

G36*
X73621Y859925D02*
X73621Y859925D01*
X73650Y859923D01*
X74307Y860010D01*
X74343Y860023D01*
X74403Y860035D01*
X75016Y860289D01*
X75046Y860311D01*
X75101Y860339D01*
X75628Y860742D01*
X75652Y860772D01*
X75698Y860812D01*
X76101Y861339D01*
X76117Y861373D01*
X76151Y861425D01*
X76405Y862037D01*
X76411Y862075D01*
X76429Y862127D01*
X76429Y862129D01*
X76430Y862133D01*
X76517Y862790D01*
X76515Y862812D01*
X76520Y862840D01*
X76520Y870460D01*
X76515Y870481D01*
X76517Y870510D01*
X76430Y871167D01*
X76417Y871203D01*
X76405Y871263D01*
X76151Y871876D01*
X76129Y871906D01*
X76101Y871961D01*
X75698Y872488D01*
X75668Y872512D01*
X75628Y872558D01*
X75101Y872961D01*
X75067Y872977D01*
X75016Y873011D01*
X74403Y873265D01*
X74366Y873271D01*
X74307Y873290D01*
X73650Y873377D01*
X73628Y873375D01*
X73600Y873380D01*
X68539Y873380D01*
X67356Y873497D01*
X66236Y873836D01*
X65204Y874388D01*
X64300Y875130D01*
X63558Y876034D01*
X63006Y877066D01*
X62667Y878186D01*
X62550Y879369D01*
X62550Y884430D01*
X62545Y884451D01*
X62547Y884480D01*
X62460Y885137D01*
X62447Y885173D01*
X62435Y885233D01*
X62181Y885846D01*
X62159Y885876D01*
X62131Y885931D01*
X61728Y886458D01*
X61698Y886482D01*
X61658Y886528D01*
X61131Y886931D01*
X61097Y886947D01*
X61046Y886981D01*
X60433Y887235D01*
X60396Y887241D01*
X60337Y887260D01*
X59680Y887347D01*
X59658Y887345D01*
X59630Y887350D01*
X52010Y887350D01*
X51989Y887345D01*
X51960Y887347D01*
X51303Y887260D01*
X51267Y887247D01*
X51207Y887235D01*
X50595Y886981D01*
X50564Y886959D01*
X50509Y886931D01*
X49982Y886528D01*
X49958Y886498D01*
X49912Y886458D01*
X49509Y885931D01*
X49493Y885897D01*
X49459Y885846D01*
X49205Y885233D01*
X49199Y885196D01*
X49180Y885137D01*
X49093Y884480D01*
X49095Y884458D01*
X49090Y884430D01*
X49090Y876810D01*
X49095Y876789D01*
X49093Y876760D01*
X49180Y876103D01*
X49193Y876067D01*
X49205Y876007D01*
X49459Y875395D01*
X49481Y875364D01*
X49509Y875309D01*
X49912Y874782D01*
X49942Y874758D01*
X49982Y874712D01*
X50509Y874309D01*
X50543Y874293D01*
X50595Y874259D01*
X51207Y874005D01*
X51245Y873999D01*
X51303Y873980D01*
X51960Y873893D01*
X51982Y873895D01*
X52010Y873890D01*
X57071Y873890D01*
X58254Y873773D01*
X59374Y873434D01*
X60406Y872882D01*
X61310Y872140D01*
X62052Y871236D01*
X62604Y870204D01*
X62943Y869084D01*
X63060Y867901D01*
X63060Y862840D01*
X63065Y862819D01*
X63063Y862790D01*
X63150Y862133D01*
X63157Y862113D01*
X63157Y862101D01*
X63165Y862086D01*
X63175Y862037D01*
X63429Y861425D01*
X63451Y861394D01*
X63479Y861339D01*
X63882Y860812D01*
X63887Y860809D01*
X63887Y860808D01*
X63894Y860803D01*
X63912Y860788D01*
X63952Y860742D01*
X64479Y860339D01*
X64513Y860323D01*
X64565Y860289D01*
X65177Y860035D01*
X65215Y860029D01*
X65273Y860010D01*
X65930Y859923D01*
X65952Y859925D01*
X65980Y859920D01*
X73600Y859920D01*
X73621Y859925D01*
G37*
G36*
X45681Y859925D02*
X45681Y859925D01*
X45710Y859923D01*
X46367Y860010D01*
X46403Y860023D01*
X46463Y860035D01*
X47076Y860289D01*
X47106Y860311D01*
X47161Y860339D01*
X47688Y860742D01*
X47712Y860772D01*
X47758Y860812D01*
X48161Y861339D01*
X48177Y861373D01*
X48211Y861425D01*
X48465Y862037D01*
X48471Y862075D01*
X48489Y862128D01*
X48489Y862129D01*
X48490Y862133D01*
X48577Y862790D01*
X48575Y862812D01*
X48580Y862840D01*
X48580Y870460D01*
X48575Y870481D01*
X48577Y870510D01*
X48490Y871167D01*
X48477Y871203D01*
X48465Y871263D01*
X48211Y871876D01*
X48189Y871906D01*
X48161Y871961D01*
X47758Y872488D01*
X47728Y872512D01*
X47688Y872558D01*
X47161Y872961D01*
X47127Y872977D01*
X47076Y873011D01*
X46463Y873265D01*
X46426Y873271D01*
X46367Y873290D01*
X45710Y873377D01*
X45688Y873375D01*
X45660Y873380D01*
X38040Y873380D01*
X38019Y873375D01*
X37990Y873377D01*
X37333Y873290D01*
X37297Y873277D01*
X37237Y873265D01*
X36625Y873011D01*
X36594Y872989D01*
X36539Y872961D01*
X36012Y872558D01*
X35988Y872528D01*
X35942Y872488D01*
X35539Y871961D01*
X35523Y871927D01*
X35489Y871876D01*
X35235Y871263D01*
X35229Y871226D01*
X35210Y871167D01*
X35123Y870510D01*
X35125Y870488D01*
X35120Y870460D01*
X35120Y862840D01*
X35125Y862819D01*
X35123Y862790D01*
X35210Y862133D01*
X35217Y862113D01*
X35217Y862101D01*
X35225Y862086D01*
X35235Y862037D01*
X35489Y861425D01*
X35511Y861394D01*
X35539Y861339D01*
X35942Y860812D01*
X35947Y860809D01*
X35947Y860808D01*
X35954Y860803D01*
X35972Y860788D01*
X36012Y860742D01*
X36539Y860339D01*
X36573Y860323D01*
X36625Y860289D01*
X37237Y860035D01*
X37275Y860029D01*
X37333Y860010D01*
X37990Y859923D01*
X38012Y859925D01*
X38040Y859920D01*
X45660Y859920D01*
X45681Y859925D01*
G37*
D10*
X527050Y812800D02*
X514350Y812800D01*
X508000Y806450D01*
X508000Y793750D02*
X514350Y787400D01*
X508000Y806450D02*
X501650Y812800D01*
X488950Y812800D01*
X482600Y806450D01*
X482600Y793750D02*
X488950Y787400D01*
X501650Y787400D01*
X508000Y793750D01*
X533400Y793750D02*
X533400Y806450D01*
X527050Y812800D01*
X533400Y793750D02*
X527050Y787400D01*
X514350Y787400D01*
X482600Y806450D02*
X476250Y812800D01*
X463550Y812800D01*
X457200Y806450D01*
X457200Y793750D02*
X463550Y787400D01*
X476250Y787400D01*
X482600Y793750D01*
X450850Y812800D02*
X438150Y812800D01*
X431800Y806450D01*
X431800Y793750D02*
X438150Y787400D01*
X431800Y806450D02*
X425450Y812800D01*
X412750Y812800D01*
X406400Y806450D01*
X406400Y793750D02*
X412750Y787400D01*
X425450Y787400D01*
X431800Y793750D01*
X450850Y812800D02*
X457200Y806450D01*
X457200Y793750D02*
X450850Y787400D01*
X438150Y787400D01*
X406400Y806450D02*
X400050Y812800D01*
X387350Y812800D01*
X381000Y806450D01*
X381000Y793750D02*
X387350Y787400D01*
X400050Y787400D01*
X406400Y793750D01*
X381000Y793750D02*
X381000Y806450D01*
D11*
X523240Y782955D02*
X526415Y780415D01*
X523240Y782955D02*
X523240Y771525D01*
X526415Y771525D02*
X520065Y771525D01*
X399415Y823595D02*
X395605Y823595D01*
X395505Y823593D01*
X395406Y823587D01*
X395306Y823577D01*
X395208Y823564D01*
X395109Y823546D01*
X395012Y823525D01*
X394916Y823500D01*
X394820Y823471D01*
X394726Y823438D01*
X394633Y823402D01*
X394542Y823362D01*
X394452Y823318D01*
X394364Y823271D01*
X394278Y823221D01*
X394194Y823167D01*
X394112Y823110D01*
X394033Y823050D01*
X393955Y822986D01*
X393881Y822920D01*
X393809Y822851D01*
X393740Y822779D01*
X393674Y822705D01*
X393610Y822627D01*
X393550Y822548D01*
X393493Y822466D01*
X393439Y822382D01*
X393389Y822296D01*
X393342Y822208D01*
X393298Y822118D01*
X393258Y822027D01*
X393222Y821934D01*
X393189Y821840D01*
X393160Y821744D01*
X393135Y821648D01*
X393114Y821551D01*
X393096Y821452D01*
X393083Y821354D01*
X393073Y821254D01*
X393067Y821155D01*
X393065Y821055D01*
X393065Y820420D01*
X393067Y820309D01*
X393073Y820199D01*
X393082Y820088D01*
X393096Y819978D01*
X393113Y819869D01*
X393134Y819760D01*
X393159Y819652D01*
X393188Y819545D01*
X393220Y819439D01*
X393256Y819334D01*
X393296Y819231D01*
X393339Y819129D01*
X393386Y819028D01*
X393437Y818929D01*
X393490Y818833D01*
X393547Y818738D01*
X393608Y818645D01*
X393671Y818554D01*
X393738Y818465D01*
X393808Y818379D01*
X393881Y818296D01*
X393956Y818214D01*
X394034Y818136D01*
X394116Y818061D01*
X394199Y817988D01*
X394285Y817918D01*
X394374Y817851D01*
X394465Y817788D01*
X394558Y817727D01*
X394653Y817670D01*
X394749Y817617D01*
X394848Y817566D01*
X394949Y817519D01*
X395051Y817476D01*
X395154Y817436D01*
X395259Y817400D01*
X395365Y817368D01*
X395472Y817339D01*
X395580Y817314D01*
X395689Y817293D01*
X395798Y817276D01*
X395908Y817262D01*
X396019Y817253D01*
X396129Y817247D01*
X396240Y817245D01*
X396351Y817247D01*
X396461Y817253D01*
X396572Y817262D01*
X396682Y817276D01*
X396791Y817293D01*
X396900Y817314D01*
X397008Y817339D01*
X397115Y817368D01*
X397221Y817400D01*
X397326Y817436D01*
X397429Y817476D01*
X397531Y817519D01*
X397632Y817566D01*
X397731Y817617D01*
X397827Y817670D01*
X397922Y817727D01*
X398015Y817788D01*
X398106Y817851D01*
X398195Y817918D01*
X398281Y817988D01*
X398364Y818061D01*
X398446Y818136D01*
X398524Y818214D01*
X398599Y818296D01*
X398672Y818379D01*
X398742Y818465D01*
X398809Y818554D01*
X398872Y818645D01*
X398933Y818738D01*
X398990Y818833D01*
X399043Y818929D01*
X399094Y819028D01*
X399141Y819129D01*
X399184Y819231D01*
X399224Y819334D01*
X399260Y819439D01*
X399292Y819545D01*
X399321Y819652D01*
X399346Y819760D01*
X399367Y819869D01*
X399384Y819978D01*
X399398Y820088D01*
X399407Y820199D01*
X399413Y820309D01*
X399415Y820420D01*
X399415Y823595D01*
X399413Y823735D01*
X399407Y823875D01*
X399398Y824015D01*
X399384Y824154D01*
X399367Y824293D01*
X399346Y824431D01*
X399321Y824569D01*
X399292Y824706D01*
X399260Y824842D01*
X399223Y824977D01*
X399183Y825111D01*
X399140Y825244D01*
X399092Y825376D01*
X399042Y825507D01*
X398987Y825636D01*
X398929Y825763D01*
X398868Y825889D01*
X398803Y826013D01*
X398734Y826135D01*
X398663Y826255D01*
X398588Y826373D01*
X398510Y826490D01*
X398428Y826604D01*
X398344Y826715D01*
X398256Y826824D01*
X398166Y826931D01*
X398072Y827036D01*
X397976Y827137D01*
X397877Y827236D01*
X397776Y827332D01*
X397671Y827426D01*
X397564Y827516D01*
X397455Y827604D01*
X397344Y827688D01*
X397230Y827770D01*
X397113Y827848D01*
X396995Y827923D01*
X396875Y827994D01*
X396753Y828063D01*
X396629Y828128D01*
X396503Y828189D01*
X396376Y828247D01*
X396247Y828302D01*
X396116Y828352D01*
X395984Y828400D01*
X395851Y828443D01*
X395717Y828483D01*
X395582Y828520D01*
X395446Y828552D01*
X395309Y828581D01*
X395171Y828606D01*
X395033Y828627D01*
X394894Y828644D01*
X394755Y828658D01*
X394615Y828667D01*
X394475Y828673D01*
X394335Y828675D01*
X518795Y774065D02*
X518795Y762635D01*
X518795Y768985D02*
X512445Y768985D01*
X512445Y774065D02*
X512445Y762635D01*
X504481Y762635D02*
X501941Y762635D01*
X504481Y762635D02*
X504581Y762637D01*
X504680Y762643D01*
X504780Y762653D01*
X504878Y762666D01*
X504977Y762684D01*
X505074Y762705D01*
X505170Y762730D01*
X505266Y762759D01*
X505360Y762792D01*
X505453Y762828D01*
X505544Y762868D01*
X505634Y762912D01*
X505722Y762959D01*
X505808Y763009D01*
X505892Y763063D01*
X505974Y763120D01*
X506053Y763180D01*
X506131Y763244D01*
X506205Y763310D01*
X506277Y763379D01*
X506346Y763451D01*
X506412Y763525D01*
X506476Y763603D01*
X506536Y763682D01*
X506593Y763764D01*
X506647Y763848D01*
X506697Y763934D01*
X506744Y764022D01*
X506788Y764112D01*
X506828Y764203D01*
X506864Y764296D01*
X506897Y764390D01*
X506926Y764486D01*
X506951Y764582D01*
X506972Y764679D01*
X506990Y764778D01*
X507003Y764876D01*
X507013Y764976D01*
X507019Y765075D01*
X507021Y765175D01*
X507021Y771525D01*
X507019Y771625D01*
X507013Y771724D01*
X507003Y771824D01*
X506990Y771922D01*
X506972Y772021D01*
X506951Y772118D01*
X506926Y772214D01*
X506897Y772310D01*
X506864Y772404D01*
X506828Y772497D01*
X506788Y772588D01*
X506744Y772678D01*
X506697Y772766D01*
X506647Y772852D01*
X506593Y772936D01*
X506536Y773018D01*
X506476Y773097D01*
X506412Y773175D01*
X506346Y773249D01*
X506277Y773321D01*
X506205Y773390D01*
X506131Y773456D01*
X506053Y773520D01*
X505974Y773580D01*
X505892Y773637D01*
X505808Y773691D01*
X505722Y773741D01*
X505634Y773788D01*
X505544Y773832D01*
X505453Y773872D01*
X505360Y773908D01*
X505266Y773941D01*
X505170Y773970D01*
X505074Y773995D01*
X504977Y774016D01*
X504878Y774034D01*
X504780Y774047D01*
X504680Y774057D01*
X504581Y774063D01*
X504481Y774065D01*
X501941Y774065D01*
X497332Y767080D02*
X489712Y767080D01*
X484505Y768350D02*
X484502Y768575D01*
X484494Y768800D01*
X484481Y769024D01*
X484462Y769248D01*
X484438Y769472D01*
X484409Y769695D01*
X484374Y769917D01*
X484334Y770138D01*
X484288Y770358D01*
X484238Y770577D01*
X484182Y770795D01*
X484121Y771012D01*
X484055Y771227D01*
X483984Y771440D01*
X483907Y771651D01*
X483826Y771861D01*
X483740Y772069D01*
X483649Y772274D01*
X483553Y772477D01*
X483553Y772478D02*
X483521Y772566D01*
X483485Y772653D01*
X483446Y772739D01*
X483403Y772823D01*
X483357Y772905D01*
X483308Y772985D01*
X483256Y773063D01*
X483200Y773139D01*
X483142Y773213D01*
X483080Y773284D01*
X483016Y773353D01*
X482949Y773419D01*
X482880Y773482D01*
X482808Y773543D01*
X482734Y773601D01*
X482657Y773655D01*
X482579Y773707D01*
X482498Y773755D01*
X482416Y773800D01*
X482331Y773842D01*
X482245Y773880D01*
X482158Y773915D01*
X482070Y773947D01*
X481980Y773974D01*
X481889Y773999D01*
X481797Y774019D01*
X481705Y774036D01*
X481611Y774049D01*
X481518Y774058D01*
X481424Y774064D01*
X481330Y774066D01*
X481236Y774064D01*
X481142Y774058D01*
X481049Y774049D01*
X480955Y774036D01*
X480863Y774019D01*
X480771Y773999D01*
X480680Y773974D01*
X480590Y773947D01*
X480502Y773915D01*
X480415Y773880D01*
X480329Y773842D01*
X480244Y773800D01*
X480162Y773755D01*
X480081Y773707D01*
X480003Y773655D01*
X479926Y773601D01*
X479852Y773543D01*
X479780Y773482D01*
X479711Y773419D01*
X479644Y773353D01*
X479580Y773284D01*
X479518Y773213D01*
X479460Y773139D01*
X479404Y773063D01*
X479352Y772985D01*
X479303Y772905D01*
X479257Y772823D01*
X479214Y772739D01*
X479175Y772653D01*
X479139Y772566D01*
X479107Y772478D01*
X479107Y772477D02*
X479011Y772274D01*
X478920Y772069D01*
X478834Y771861D01*
X478753Y771651D01*
X478676Y771440D01*
X478605Y771227D01*
X478539Y771012D01*
X478478Y770795D01*
X478422Y770577D01*
X478372Y770358D01*
X478326Y770138D01*
X478286Y769917D01*
X478251Y769695D01*
X478222Y769472D01*
X478198Y769248D01*
X478179Y769024D01*
X478166Y768800D01*
X478158Y768575D01*
X478155Y768350D01*
X484505Y768350D02*
X484502Y768125D01*
X484494Y767900D01*
X484481Y767676D01*
X484462Y767452D01*
X484438Y767228D01*
X484409Y767005D01*
X484374Y766783D01*
X484334Y766562D01*
X484288Y766342D01*
X484238Y766123D01*
X484182Y765905D01*
X484121Y765688D01*
X484055Y765473D01*
X483984Y765260D01*
X483907Y765049D01*
X483826Y764839D01*
X483740Y764631D01*
X483649Y764426D01*
X483553Y764223D01*
X483521Y764135D01*
X483485Y764048D01*
X483446Y763962D01*
X483403Y763878D01*
X483357Y763796D01*
X483308Y763716D01*
X483256Y763638D01*
X483200Y763562D01*
X483142Y763488D01*
X483080Y763417D01*
X483016Y763348D01*
X482949Y763282D01*
X482880Y763219D01*
X482808Y763158D01*
X482734Y763100D01*
X482657Y763046D01*
X482579Y762994D01*
X482498Y762946D01*
X482416Y762901D01*
X482331Y762859D01*
X482245Y762821D01*
X482158Y762786D01*
X482070Y762754D01*
X481980Y762727D01*
X481889Y762702D01*
X481797Y762682D01*
X481705Y762665D01*
X481611Y762652D01*
X481518Y762643D01*
X481424Y762637D01*
X481330Y762635D01*
X479107Y764223D02*
X479011Y764426D01*
X478920Y764631D01*
X478834Y764839D01*
X478753Y765049D01*
X478676Y765260D01*
X478605Y765473D01*
X478539Y765688D01*
X478478Y765905D01*
X478422Y766123D01*
X478372Y766342D01*
X478326Y766562D01*
X478286Y766783D01*
X478251Y767005D01*
X478222Y767228D01*
X478198Y767452D01*
X478179Y767676D01*
X478166Y767900D01*
X478158Y768125D01*
X478155Y768350D01*
X479107Y764223D02*
X479139Y764135D01*
X479175Y764048D01*
X479214Y763962D01*
X479257Y763878D01*
X479303Y763796D01*
X479352Y763716D01*
X479404Y763638D01*
X479460Y763562D01*
X479518Y763488D01*
X479580Y763417D01*
X479644Y763348D01*
X479711Y763282D01*
X479780Y763219D01*
X479852Y763158D01*
X479926Y763100D01*
X480003Y763046D01*
X480081Y762994D01*
X480162Y762946D01*
X480244Y762901D01*
X480329Y762859D01*
X480415Y762821D01*
X480502Y762786D01*
X480590Y762754D01*
X480680Y762727D01*
X480771Y762702D01*
X480863Y762682D01*
X480955Y762665D01*
X481049Y762652D01*
X481142Y762643D01*
X481236Y762637D01*
X481330Y762635D01*
X483870Y765175D02*
X478790Y771525D01*
X473075Y762635D02*
X469265Y762635D01*
X469165Y762637D01*
X469066Y762643D01*
X468966Y762653D01*
X468868Y762666D01*
X468769Y762684D01*
X468672Y762705D01*
X468576Y762730D01*
X468480Y762759D01*
X468386Y762792D01*
X468293Y762828D01*
X468202Y762868D01*
X468112Y762912D01*
X468024Y762959D01*
X467938Y763009D01*
X467854Y763063D01*
X467772Y763120D01*
X467693Y763180D01*
X467615Y763244D01*
X467541Y763310D01*
X467469Y763379D01*
X467400Y763451D01*
X467334Y763525D01*
X467270Y763603D01*
X467210Y763682D01*
X467153Y763764D01*
X467099Y763848D01*
X467049Y763934D01*
X467002Y764022D01*
X466958Y764112D01*
X466918Y764203D01*
X466882Y764296D01*
X466849Y764390D01*
X466820Y764486D01*
X466795Y764582D01*
X466774Y764679D01*
X466756Y764778D01*
X466743Y764876D01*
X466733Y764976D01*
X466727Y765075D01*
X466725Y765175D01*
X466725Y766445D01*
X466727Y766545D01*
X466733Y766644D01*
X466743Y766744D01*
X466756Y766842D01*
X466774Y766941D01*
X466795Y767038D01*
X466820Y767134D01*
X466849Y767230D01*
X466882Y767324D01*
X466918Y767417D01*
X466958Y767508D01*
X467002Y767598D01*
X467049Y767686D01*
X467099Y767772D01*
X467153Y767856D01*
X467210Y767938D01*
X467270Y768017D01*
X467334Y768095D01*
X467400Y768169D01*
X467469Y768241D01*
X467541Y768310D01*
X467615Y768376D01*
X467693Y768440D01*
X467772Y768500D01*
X467854Y768557D01*
X467938Y768611D01*
X468024Y768661D01*
X468112Y768708D01*
X468202Y768752D01*
X468293Y768792D01*
X468386Y768828D01*
X468480Y768861D01*
X468576Y768890D01*
X468672Y768915D01*
X468769Y768936D01*
X468868Y768954D01*
X468966Y768967D01*
X469066Y768977D01*
X469165Y768983D01*
X469265Y768985D01*
X473075Y768985D01*
X473075Y774065D01*
X466725Y774065D01*
M02*
